# xmcd
#
# Track frame offsets:
#	150
#	12323
#	29798
#	51212
#	63231
#	78918
#	92901
#	103503
#	115538
#	135646
#	154702
#	173873
#
# Disc length: 2627 seconds
# Revision: 0
# Processed by: cddbd v1.5.2PL0 Copyright (c) Steve Scherf et al.
# Submitted via: dBpowerAMP V12.0
#
DISCID=940a410c
DTITLE=Blackheart - Indigo
DYEAR=2007
DGENRE=Country
TTITLE0=Wonderland
TTITLE1=Flowers for Tomorrow
TTITLE2=94 Years
TTITLE3=One of One
TTITLE4=Indigo
TTITLE5=01204
TTITLE6=Somewhere in a Dream
TTITLE7=Don't Look Down
TTITLE8=In America
TTITLE9=Unlike Water
TTITLE10=The Darkest of Days
TTITLE11=Blue Flowers for Tomorrow
EXTD=
EXTT0=
EXTT1=
EXTT2=
EXTT3=
EXTT4=
EXTT5=
EXTT6=
EXTT7=
EXTT8=
EXTT9=
EXTT10=
EXTT11=
PLAYORDER=
